<?xml version="1.0" encoding="UTF-8" ?>
<svg version="1.1" viewBox="0 0 638.66 799.85" id="svg3" xmlns:inkscape="http://www.inkscape.org/namespaces/inkscape"
   xmlns:sodipodi="http://sodipodi.sourceforge.net/DTD/sodipodi-0.dtd" xmlns="http://www.w3.org/2000/svg"
   xmlns:svg="http://www.w3.org/2000/svg">
   <path
      d="m 383.26646,679.30534 c 0,0 51.12922,-22.57666 112.74394,-60.94164 36.71279,-22.85956 29.09824,-58.68902 31.59807,-81.67732 0,0 6.45984,-64.66173 40.44841,-53.60126 21.44458,6.97878 25.94554,22.64297 29.03073,38.05139 11.6052,57.95288 -28.92444,115.25069 -45.70216,135.28232 -58.04893,69.32106 -146.49605,93.12886 -153.67844,88.94297"
      fill="none" stroke="#000" stroke-linecap="round" stroke-linejoin="round" stroke-width="7"
      style="paint-order:markers fill stroke;fill:#ffe07b;fill-opacity:1" id="tail" />
   <g id="fills">
      <path
         d="m 486.60021,590.04951 c -0.6,0.019 -6.03985,1.75442 -12.08984,3.85742 -19.87698,6.90699 -29.5,11.60072 -29.5,14.38672 0,2.636 15.70102,11.21041 36.75,20.0664 l 8.25,3.47071 v -11.4668 c 0,-13.73199 -1.87116,-30.36345 -3.41016,-30.31445 z"
         style="fill:#e9b312;fill-rule:evenodd;fill-opacity:1" />
      <path
         d="m 95.60412,590.0163 c -0.919,0 -1.65313,3.00417 -2.45313,10.03516 -0.627,5.52 -1.14062,14.95009 -1.14062,20.95508 v 10.91992 l 7.25,-3.01562 c 11.17398,-4.647 32.96422,-15.59841 35.69921,-17.94141 3.328,-2.852 2.11856,-4.4865 -6.52343,-8.8125 -6.945,-3.478 -30.37504,-12.14063 -32.83203,-12.14063 z"
         style="fill:#e9b312;fill-rule:evenodd;fill-opacity:1" />
      <path
         d="m 464.14122,516.03584 c -0.34899,0.012 -5.22208,2.43572 -10.83007,5.38671 -13.00799,6.846 -24.50639,14.48118 -24.02539,15.95118 0.647,1.97799 12.62372,5.64175 29.7207,9.09375 9.07499,1.832 16.67467,3.16779 16.88867,2.96679 0.571,-0.533 -11.00491,-33.42343 -11.75391,-33.39843 z"
         style="fill:#e9b312;fill-rule:evenodd;fill-opacity:1" />
      <path
         d="m 117.64904,516.0163 c -0.218,0 -2.77651,6.86201 -5.6875,15.25 -2.911,8.388 -5.49142,15.81301 -5.73242,16.5 -0.67,1.917 3.19628,1.56042 19.19726,-1.76757 15.51499,-3.226 26.69169,-6.76172 27.30469,-8.63672 0.497,-1.517 -13.82414,-10.93524 -25.45313,-16.74024 -5.07699,-2.53399 -9.4099,-4.60547 -9.6289,-4.60547 z"
         style="fill:#e9b312;fill-rule:evenodd;fill-opacity:1" />
      <path
         d="m 319.45763,61.85419 -12.98242,18.830078 c -10.85299,15.739984 -13.38388,18.828125 -15.42188,18.828125 -2.03899,0 -4.54241,-3.065016 -15.3164,-18.75 l -12.88281,-18.75 -3.16993,0.140625 c -1.74499,0.077 -5.50733,0.424484 -8.36132,0.771484 -2.853,0.347 -5.39449,0.846375 -5.64649,1.109375 -0.252,0.263 -1.43591,5.326959 -2.62891,11.251953 -2.57199,12.762987 -6.11378,23.624004 -9.05078,27.75 -1.67999,2.35799 -2.86875,2.97656 -5.71875,2.97656 -3.17999,0 -4.47664,-0.90966 -11.18164,-7.847654 -4.17099,-4.315995 -10.05898,-11.27866 -13.08398,-15.472656 -3.025,-4.192996 -6.21113,-7.637344 -7.07813,-7.652344 -1.89199,-0.034 -38.2476,17.814226 -50.05859,24.574219 -39.21796,22.446975 -63.18248,44.270465 -77.85547,70.898435 -4.80799,8.72499 -11.70133,25.57802 -16.36133,40.00001 -3.77799,11.69099 -6.96012,23.53172 -6.45312,24.01172 0.168,0.16 4.35664,1.02959 9.30664,1.93359 12.20499,2.229 23.08247,5.23385 26.10547,7.21484 1.931,1.265 2.42931,2.34329 2.19531,4.73829 -0.251,2.57599 -1.38604,3.8155 -6.70703,7.3125 -3.524,2.31599 -13.50656,7.45583 -22.18555,11.42382 -11.79999,5.396 -15.90625,7.73902 -16.28125,9.29102 -0.277,1.141 -0.81622,7.97737 -1.19922,15.19336 l -0.69531,13.12109 7.88281,0.6836 c 12.41399,1.075 24.82821,3.56111 28.28321,5.66211 6.76699,4.11499 5.50209,7.77301 -6.96289,20.125 -5.464,5.41499 -9.93555,10.0564 -9.93555,10.3164 0,0.259 3.61807,0.47266 8.03906,0.47266 11.09299,0 26.6946,1.85378 30.93359,3.67578 l 3.52735,1.51367 -2.5,0.99219 c -1.678,0.665 -8.31637,0.5942 -20.19336,-0.2168 -16.47598,-1.125 -28.80664,-0.75195 -28.80664,0.87305 0,2.774 19.79256,31.16211 21.72656,31.16211 0.339,0 5.69721,-2.95065 11.9082,-6.55664 6.21,-3.606 12.98851,-6.83292 15.0625,-7.16992 l 3.76954,-0.61133 -1.56836,2.36328 c -0.863,1.3 -6.82215,5.48574 -13.24414,9.30273 -9.88299,5.874 -11.48827,7.16788 -10.44727,8.42188 6.06999,7.31299 40.13006,31.87111 53.62305,38.66211 18.85098,9.48899 50.26419,17.3316 99.36914,24.80859 l 21.30078,3.24414 h 42 c 44.83295,0.001 45.57804,-0.0533 82.5,-6.07031 33.56997,-5.47099 65.20247,-13.92429 79.93945,-21.36328 14.19499,-7.16599 37.24533,-23.26544 50.44531,-35.23242 l 5.88672,-5.33789 -11.77929,-7.00391 c -6.479,-3.853 -12.4961,-8.08239 -13.3711,-9.40039 l -1.58984,-2.39453 3.82226,0.62109 c 2.102,0.341 8.89762,3.56697 15.09961,7.16797 6.203,3.602 11.53843,6.54883 11.85743,6.54883 1.87999,0 21.68945,-28.41338 21.68945,-31.10938 0,-1.38099 -12.28475,-1.68117 -28.67774,-0.70117 -11.10198,0.663 -18.176,0.6855 -20,0.0625 l -2.82226,-0.9668 3.88086,-1.64648 c 4.80299,-2.038 18.08543,-3.61986 30.48242,-3.63086 l 9.36328,-0.008 -9.40039,-8.89649 c -17.98298,-17.01798 -17.2394,-22.05558 3.76758,-25.51757 4.89799,-0.808 12.22902,-1.77158 16.29101,-2.14258 l 7.38477,-0.67383 -0.69727,-13.13477 c -0.383,-7.22399 -0.92221,-14.06798 -1.19921,-15.20898 -0.375,-1.552 -4.48127,-3.89502 -16.28125,-9.29102 -8.679,-3.96799 -18.66155,-9.10783 -22.18555,-11.42382 -5.321,-3.497 -6.45799,-4.73651 -6.70899,-7.3125 -0.235,-2.41 0.26696,-3.47244 2.25196,-4.77344 2.97499,-1.949 17.84143,-5.96039 28.35742,-7.65039 l 7.30859,-1.17383 -0.68164,-3.15039 C 532.43492,217.7408 524.22933,194.01218 517.05333,178.47919 503.16235,148.41122 477.80504,123.99607 435.14708,99.608096 423.1791,92.766103 386.95949,75.004268 385.08849,75.059268 c -0.867,0.026 -4.95118,4.57438 -9.07617,10.109375 -10.10699,13.562986 -17.98097,20.843747 -22.54297,20.843747 -2.858,0 -3.83863,-0.624 -5.89063,-3.75 -2.73699,-4.169993 -6.48542,-16.318589 -9.10742,-29.517575 -1.92899,-9.717991 -1.39034,-9.259236 -11.98633,-10.240235 z m -33.85742,224.50586 c 7.13338,-0.30881 16.5863,0.53862 18.87305,2.03711 3.28599,2.153 3.21601,4.68351 -0.33399,12.1875 -3.28099,6.935 -8.4071,13.20644 -11.87109,14.52344 -4.49,1.707 -9.56255,-2.34816 -15.68555,-12.53515 -3.724,-6.197 -4.60318,-11.45602 -2.24219,-13.41602 0.731,-0.606 3.09301,-1.54398 5.25,-2.08398 1.511,-0.3785 3.63197,-0.60996 6.00977,-0.7129 z"
         style="fill:#ffe07b;fill-rule:evenodd;fill-opacity:1" id="face-fill" />
      <path
         d="m 433.51037,440.2624 -4.5,1.36133 c -17.19999,5.20199 -50.98144,11.66399 -83.44141,15.95898 -17.16498,2.271 -22.48563,2.52478 -53.55859,2.55078 -36.43297,0.03 -42.85104,-0.4458 -77,-5.71679 -20.94998,-3.234 -38.33282,-6.69009 -53.2168,-10.58008 -6.44399,-1.684 -12.33861,-2.8203 -13.09961,-2.5293 -1.8,0.691 -28.68359,64.84518 -28.68359,68.45117 0,0.56 5.01935,3.63694 11.15234,6.83594 19.14098,9.98599 27.84766,16.65127 27.84766,21.32227 0,5.06699 -10.38861,9.09434 -36.51758,14.15234 -9.33899,1.809 -17.52641,3.77319 -18.19141,4.36719 -1.741,1.552 -8.71997,26.57219 -7.66797,27.49218 0.482,0.422 6.50196,2.69002 13.37696,5.04102 31.15196,10.64999 38.4093,16.92601 29.19531,25.25 -4.236,3.827 -22.71889,13.47685 -37.04688,19.33984 -5.14399,2.105 -9.58986,4.44418 -9.88086,5.20118 -0.744,1.93899 1.47244,20.93666 3.77344,32.34765 5.977,29.64097 15.80711,50.10754 27.7461,57.76953 11.12398,7.138 33.93496,13.15888 57.96093,15.29688 7.286,0.649 13.4996,0.92814 13.8086,0.61914 0.309,-0.31 -0.1391,-4.26126 -0.9961,-8.78125 -1.819,-9.58999 -2.0495,-24.64065 -0.4375,-28.68164 l 1.12305,-2.81446 1.43945,3.39454 c 0.791,1.86699 2.31953,9.517 3.39453,17 2.568,17.86398 4.03482,22.06269 9.75782,27.92968 13.17498,13.50299 30.32459,14.75196 43.51757,3.16797 5.635,-4.94799 8.21799,-10.23878 12.08399,-24.75976 1.939,-7.282 4.49659,-15.14566 5.68359,-17.47266 l 2.15821,-4.23242 0.95312,2.48633 c 1.445,3.77599 0.11365,14.56084 -3.15234,25.54882 -1.613,5.426 -2.71622,10.22035 -2.44922,10.65235 0.628,1.016 44.09856,1.02967 44.72656,0.0137 0.261,-0.423 -0.63138,-4.585 -1.98437,-9.25 -3.392,-11.69399 -4.82443,-20.77882 -3.98243,-25.25781 1.31,-6.96799 3.93463,-1.99005 9.14063,17.33594 3.99399,14.82298 6.52482,20.03108 12.13281,24.95507 9.36099,8.218 20.5896,10.34281 30.43359,5.75782 15.87099,-7.393 20.16854,-14.37896 22.89454,-37.21094 0.631,-5.289 1.96484,-11.96589 2.96484,-14.83789 l 1.81641,-5.22071 1.22461,3 c 1.74499,4.271 1.54317,17.49534 -0.42383,27.86133 -0.926,4.875 -1.42728,9.1206 -1.11328,9.4336 0.313,0.313 6.52002,0.013 13.79101,-0.66797 34.35397,-3.217 58.21776,-11.56864 66.84375,-23.39063 7.65499,-10.48999 14.32294,-27.67691 18.46094,-47.58789 2.618,-12.59198 4.99411,-32.2675 4.16211,-34.4375 -0.284,-0.738 -4.72319,-3.06297 -9.86719,-5.16797 -14.32798,-5.86299 -32.81283,-15.51284 -37.04883,-19.33984 -9.20499,-8.31699 -1.55565,-14.86942 29.69532,-25.44141 6.59999,-2.23299 12.3807,-4.39468 12.8457,-4.80468 1.37,-1.21 -6.3721,-27.84119 -8.2461,-28.36719 -0.87999,-0.247 -9.02461,-1.88753 -18.0996,-3.64453 -25.70898,-4.978 -36,-9.00395 -36,-14.08594 0,-4.644 11.43301,-13.10678 30.75,-22.75977 4.53799,-2.26699 8.25,-4.63 8.25,-5.25 0,-2.12899 -23.7608,-60.81761 -27.2168,-67.22461 z"
         style="fill:#ffe07b;fill-rule:evenodd;fill-opacity:1" id="path51" />
      <path
         d="m 544.29747,311.01435 -5.39257,0.13672 c -2.967,0.075 -6.51954,0.29995 -7.89453,0.50195 -18.81199,2.755 -21.02788,3.56912 -19.17188,7.03711 1.19,2.225 16.33532,16.82116 21.69531,20.91016 1.865,1.422 3.80832,2.32676 4.32032,2.00976 1.46399,-0.90499 5.03939,-15.35571 5.77539,-23.3457 z"
         style="fill:#e9b312;fill-rule:evenodd;fill-opacity:1" id="path50" />
      <path
         d="m 37.74669,310.38935 0.60352,7.5625 c 0.611,7.63499 4.04159,21.7978 5.68359,23.4668 1.149,1.168 6.26861,-2.74662 16.8086,-12.84961 9.88099,-9.46899 11.14193,-11.37339 8.71093,-13.15039 -1.94899,-1.425 -11.12584,-3.08719 -23.42382,-4.24219 z"
         style="fill:#e9b312;fill-rule:evenodd;fill-opacity:1" id="path49" />
      <path
         d="m 285.60021,286.36005 c -2.3778,0.10294 -4.49877,0.3344 -6.00977,0.7129 -2.15699,0.54 -4.519,1.47798 -5.25,2.08398 -2.36099,1.96 -1.48181,7.21902 2.24219,13.41602 6.123,10.18699 11.19555,14.24215 15.68555,12.53515 3.46399,-1.317 8.5901,-7.58844 11.87109,-14.52344 3.55,-7.50399 3.61998,-10.0345 0.33399,-12.1875 -2.28675,-1.49849 -11.73967,-2.34592 -18.87305,-2.03711 z"
         style="fill:#080808;fill-rule:evenodd" id="path47" />
      <path
         d="m 46.03966,240.73115 c -0.8588,-0.0103 -1.39858,0.0709 -1.51758,0.26367 -0.776,1.256 -4.64721,24.09081 -4.32421,25.50781 0.35999,1.578 21.50577,-7.72921 31.88476,-14.0332 5.506,-3.345 6.01791,-3.91544 4.50391,-5.02344 -2.86213,-2.09212 -24.53526,-6.64291 -30.54688,-6.71484 z"
         style="fill:#e9b312;fill-rule:evenodd;fill-opacity:1" id="path46" />
      <path
         d="m 536.51037,240.43818 c -0.55,-0.123 -5.31867,0.57855 -10.59766,1.56055 -11.32699,2.10699 -20.57742,4.68136 -21.35742,5.94336 -0.875,1.41499 12.80228,9.05968 29.32226,16.38867 l 8.36719,3.71289 -0.66406,-5.26367 c -1.206,-9.56799 -4.05332,-22.1138 -5.07031,-22.3418 z"
         style="fill:#e9b312;fill-rule:evenodd;fill-opacity:1" id="path44" />
      <path
         d="m 235.82482,65.186221 c -2.3955,0.142 -6.39451,0.89047 -12.8125,2.292969 -12.89099,2.817997 -19,4.615751 -19,5.59375 0,1.513998 13.88632,18.602504 18.94531,23.3125 6.065,5.64799 6.59713,5.46694 9.82813,-3.373047 1.97099,-5.392995 6.22656,-23.491425 6.22656,-26.482422 0,-1.021499 -0.792,-1.48575 -3.1875,-1.34375 z"
         style="fill:#e9b312;fill-rule:evenodd;fill-opacity:1" id="path43" />
      <path
         d="m 345.2799,65.121768 c -1.89113,-0.038 -2.26205,0.517126 -2.24805,1.640625 0.036,2.936997 3.86702,19.374834 6.04102,25.923828 3.02499,9.111989 3.85416,9.415149 10.03515,3.660156 5.071,-4.722995 18.90235,-21.771783 18.90235,-23.300781 0,-0.970999 -8.61335,-3.393768 -21.36133,-6.009766 -6.0675,-1.245499 -9.47802,-1.876062 -11.36914,-1.914062 z"
         style="fill:#e9b312;fill-rule:evenodd;fill-opacity:1" id="path41" />
      <path
         d="m 291.08458,61.012393 c -11.58998,0 -21.07226,0.376891 -21.07226,0.83789 0,1.019999 17.56033,26.975425 19.86133,29.357422 1.529,1.582999 2.30768,0.716612 11.63867,-12.984375 5.49999,-8.074992 10.14426,-15.252266 10.32226,-15.947265 0.253,-0.988999 -4.26401,-1.263672 -20.75,-1.263672 z"
         style="fill:#e9b312;fill-rule:evenodd;fill-opacity:1" id="path37" />
      <path
         d="m 498.9088,54.295596 c -4.00399,-0.136 -8.45348,0.456032 -11.89648,1.582031 -7.43399,2.431998 -13.60101,5.661176 -19,9.951172 -5.822,4.626995 -23.62427,21.910503 -26.07227,25.3125 l -1.89062,2.628906 12.84961,8.095695 c 15.99398,10.07699 29.01901,20.08259 40.375,31.01758 4.81999,4.641 8.99148,8.20969 9.27148,7.92969 1.059,-1.058 6.39125,-27.70673 7.40625,-37.01172 2.223,-20.366974 0.9517,-41.771203 -2.7793,-46.783198 -1.61299,-2.165998 -2.73267,-2.534656 -8.26367,-2.722656 z"
         style="fill:#fd9baf;fill-rule:evenodd;fill-opacity:1" id="ear-inner-right" />
      <path
         d="m 82.8756,54.01044 c -3.39512,0.02887 -6.11503,0.616407 -7.14453,1.753906 -0.872,0.962999 -2.12511,3.101002 -2.78711,4.75 -1.757,4.375995 -2.35992,28.324607 -1.04492,41.558594 1.023,10.30799 6.33445,37.49951 7.56445,38.72851 0.272,0.272 4.74732,-3.57102 9.94531,-8.54101 11.12199,-10.63299 25.60871,-21.63697 41.30469,-31.37696 9.66699,-5.997988 11.1558,-7.260245 10.3418,-8.781244 -0.523,-0.976999 -6.99482,-7.614054 -14.38281,-14.748046 C 112.57849,63.743203 105.35281,58.923093 94.07482,55.608096 90.34182,54.511097 86.27072,53.981565 82.8756,54.01044 Z"
         style="fill:#fd9baf;fill-rule:evenodd;fill-opacity:1" id="ear-inner-left" />
      <path
         d="m 68.6588,7.6120022 c -2.53012,-0.05642 -4.84383,0.213735 -6.98633,0.802734 C 47.99949,12.173733 38.41019,26.318258 34.93419,47.852236 c -1.83899,11.391989 -2.6144,40.516184 -1.8164,68.160154 1.198,41.55596 6.08441,69.45626 14.1914,81.03126 1.324,1.89 1.62879,1.48608 4.67578,-6.25391 4.453,-11.312 12.02134,-26.39186 17.48633,-34.83985 l 4.54297,-7.02149 -2.59961,-10.20898 c -5.47799,-21.51798 -6.50547,-28.5838 -7.10547,-48.925777 -0.627,-21.250979 0.25201,-29.3841 3.875,-35.871094 5.486,-9.82499 19.85034,-9.956272 39.57032,-0.363281 8.72099,4.242996 10.6439,5.776171 25.58789,20.410156 l 16.1582,15.822266 11,-5.503907 c 6.04999,-3.026997 11.17563,-5.667234 11.39062,-5.865234 1.25,-1.149999 -25.92215,-29.873633 -35.36914,-37.390625 C 128.81009,34.89493 109.16259,22.617106 98.5006,17.274111 85.78811,10.902868 76.24917,7.7812682 68.6588,7.6120022 Z"
         style="fill:#ffe07b;fill-rule:evenodd;fill-opacity:1" id="ear-left" />
      <path
         d="m 512.08068,7.4889552 c -1.72886,0.05236 -3.49369,0.25636 -5.28906,0.615235 -15.36899,3.0729968 -51.61472,23.8187958 -68.22071,39.0507808 -9.69899,8.894991 -28.65751,29.904907 -27.97851,31.003906 0.31,0.502 5.36828,3.325441 11.23828,6.273438 l 10.67187,5.359375 16.11133,-15.777344 c 14.76799,-14.460986 16.89601,-16.164114 25.5,-20.41211 10.54999,-5.208994 22.05995,-8.065248 28.33594,-7.03125 13.05499,2.150998 16.19314,11.046689 15.24414,43.222657 -0.601,20.354977 -1.6251,27.403247 -7.12109,48.990227 l -2.61719,10.27149 3.96094,5.83203 c 4.65899,6.85999 13.14986,23.46829 17.50585,34.23828 1.693,4.18801 3.53008,7.7576 4.08008,7.9336 0.55,0.176 2.47054,-2.57909 4.26953,-6.12109 8.505,-16.74699 13.22842,-64.56004 11.23243,-113.70899 -1.128,-27.773973 -3.04026,-39.787885 -7.90625,-49.671875 C 534.51476,14.185578 524.1827,7.1224262 512.08068,7.4889552 Z"
         style="fill:#ffe07b;fill-rule:evenodd;fill-opacity:1" id="ear-right" />
   </g>
   <path
      d="m 55.853,2.3767 c -9.603,3.95 -16.522,10.938 -21.774,21.991 -7.145,15.038 -8.582,27.474 -8.565,74.139 0.012,34.053 0.251,39.714 2.299,54.5 4.027,29.082 7.311,40.243 14.838,50.432 l 2.905,3.932 -3.329,11.568 c -12.913,44.88 -15.861,92.037 -7.476,119.56 l 1.825,5.99 -8.038,4.614 C 13.313,357.8407 0,368.5267 0,372.0107 c 0,2.587 4.482,0.371 18.95,-9.372 12.648,-8.516 20.169,-12.543 20.701,-11.082 1.365,3.751 10.444,17.756 15.857,24.461 l 6.438,7.975 -6.804,6.804 c -7.945,7.945 -16.727,20.044 -17.672,24.346 -1.554,7.075 2.502,4.295 12.356,-8.47 4.397,-5.695 9.902,-11.989 12.236,-13.986 l 4.242,-3.631 4.598,4.016 c 21.964,19.182 48.055,36.763 63.098,42.516 2.475,0.946 4.895,2.071 5.379,2.499 0.483,0.428 -4.084,12.836 -10.159,27.6 -24.69,59.997 -39.727,105.21 -43.178,129.82 -5.286,37.695 0.687,85.401 14.413,115.11 6.561,14.202 12.945,21.319 24.41,27.216 15.808,8.13 33.172,11.969 66.623,14.732 l 7.987,0.659 6.198,5.798 c 3.409,3.189 9.256,7.303 12.992,9.143 5.996,2.952 7.736,3.344 14.835,3.344 7.046,0 8.857,-0.401 14.619,-3.238 3.618,-1.781 8.637,-5.156 11.154,-7.5 l 4.576,-4.262 54.108,0.22 5.771,4.785 c 9.076,7.525 15.207,9.993 24.824,9.994 7.265,10e-4 8.781,-0.359 15.511,-3.686 4.576,-2.261 9.595,-5.805 12.983,-9.166 l 5.524,-5.479 13.965,-1.158 c 41.18,-3.412 65.408,-12.068 76.997,-27.51 7.801,-10.395 15.819,-31.248 19.57,-50.897 l 4.3754,-35.672 c 0.8262,-62.763 -26.27,-127.35 -49.722,-184.56 l -6.442,-15.133 8.002,-3.304 c 15.16,-6.259 40.599,-23.135 57.097,-37.878 l 8.913,-7.964 4.016,3.181 c 2.208,1.749 7.986,8.206 12.838,14.348 10.343,13.093 13.894,15.542 12.351,8.517 -0.964,-4.387 -9.833,-16.614 -17.683,-24.377 l -6.818,-6.743 6.451,-7.99 c 5.451,-6.752 14.677,-20.996 15.82,-24.424 0.571,-1.715 6.386,1.354 20.897,11.031 13.724,9.151 17.387,11.117 18.55,9.955 1.077,-1.078 -5.268,-7.995 -12.006,-13.087 -3.639,-2.75 -10.631,-7.25 -15.539,-10 l -8.923,-5 1.405,-4 c 4.13,-11.759 4.816,-17.601 4.816,-41 0,-28.214 -2.502,-46.218 -10.629,-76.5 -1.698,-6.325 -3.309,-12.477 -3.581,-13.672 -0.314,-1.381 0.586,-3.747 2.471,-6.5 7.19,-10.496 9.805,-18.752 13.131,-41.47 3.645,-24.894 4.387,-38.9 3.828,-72.252 -0.56,-33.343 -1.768,-45.345 -5.768,-57.282 -4.564,-13.622 -12.785,-23.981 -22.732,-28.643 -7.841,-3.675 -20.448,-3.799 -30.601,-0.301 -13.564,4.673 -39.923,19.486 -55.119,30.975 -6.751,5.105 -27.649,26.018 -34.5,34.526 -2.739,3.401 -5.087,5.424 -6,5.168 -0.825,-0.231 -5.775,-2.182 -11,-4.335 -24.833,-10.234 -59.321,-15.66 -99.5,-15.654 -43.109,0.007 -77.467,5.627 -103.95,17.004 l -8.444,3.627 -3.304,-3.813 c -9.39,-10.841 -23.347,-25.521 -29.017,-30.521 -8.758,-7.725 -30.55,-21.932 -44.468,-28.991 -21.54,-10.925 -34.706,-13.333 -46.465,-8.496 m 5.819,6.033 c -13.673,3.759 -23.261,17.902 -26.737,39.436 -1.839,11.392 -2.616,40.517 -1.818,68.161 1.198,41.556 6.086,69.457 14.193,81.032 1.324,1.89 1.627,1.485 4.674,-6.255 4.453,-11.312 12.023,-26.392 17.488,-34.84 l 4.542,-7.021 -2.6,-10.208 c -5.478,-21.518 -6.505,-28.585 -7.105,-48.927 -0.627,-21.251 0.252,-29.384 3.875,-35.871 5.486,-9.825 19.851,-9.956 39.571,-0.363 8.721,4.243 10.643,5.776 25.587,20.41 l 16.158,15.822 11,-5.504 c 6.05,-3.027 11.176,-5.666 11.391,-5.864 1.25,-1.15 -25.921,-29.875 -35.368,-37.392 -7.712,-6.137 -27.361,-18.414 -38.023,-23.757 -16.95,-8.495 -28.258,-11.215 -36.828,-8.859 m 445.12,-0.312 c -15.369,3.073 -51.615,23.82 -68.221,39.052 -9.699,8.895 -28.657,29.905 -27.978,31.004 0.31,0.502 5.367,3.325 11.237,6.273 l 10.672,5.359 16.112,-15.777 c 14.768,-14.461 16.896,-16.165 25.5,-20.413 10.55,-5.209 22.06,-8.064 28.336,-7.03 13.055,2.151 16.192,11.046 15.243,43.222 -0.601,20.355 -1.625,27.403 -7.121,48.99 l -2.616,10.272 3.961,5.832 c 4.659,6.86 13.15,23.468 17.506,34.238 1.693,4.188 3.529,7.757 4.079,7.933 0.55,0.176 2.472,-2.578 4.271,-6.12 8.505,-16.747 13.228,-64.561 11.232,-113.71 -1.128,-27.774 -3.041,-39.788 -7.907,-49.672 -7.524,-15.282 -19.943,-22.324 -34.306,-19.453 m -431.06,47.661 c -0.872,0.963 -2.127,3.101 -2.789,4.75 -1.757,4.376 -2.359,28.325 -1.044,41.559 1.023,10.308 6.334,37.499 7.564,38.728 0.272,0.272 4.748,-3.571 9.946,-8.541 11.122,-10.633 25.609,-21.637 41.305,-31.377 9.667,-5.998 11.155,-7.261 10.341,-8.782 -0.523,-0.977 -6.995,-7.613 -14.383,-14.747 -14.094,-13.611 -21.319,-18.431 -32.597,-21.746 -7.466,-2.194 -16.284,-2.119 -18.343,0.156 m 411.28,0.113 c -7.434,2.432 -13.601,5.662 -19,9.952 -5.822,4.627 -23.624,21.909 -26.072,25.311 l -1.891,2.629 12.851,8.097 c 15.994,10.077 29.018,20.082 40.374,31.017 4.82,4.641 8.991,8.209 9.271,7.929 1.059,-1.058 6.392,-27.706 7.407,-37.011 2.223,-20.367 0.951,-41.772 -2.78,-46.784 -1.613,-2.166 -2.732,-2.534 -8.263,-2.722 -4.004,-0.136 -8.454,0.456 -11.897,1.582 m -217,5.973 c 0,1.02 17.56,26.976 19.861,29.358 1.529,1.583 2.308,0.715 11.639,-12.986 5.5,-8.075 10.145,-15.251 10.323,-15.946 0.253,-0.989 -4.264,-1.264 -20.75,-1.264 -11.59,0 -21.073,0.377 -21.073,0.838 m -18.689,1.075 c -2.853,0.347 -5.395,0.846 -5.647,1.109 -0.252,0.263 -1.435,5.326 -2.628,11.251 -2.572,12.763 -6.115,23.624 -9.052,27.75 -1.68,2.358 -2.868,2.977 -5.718,2.977 -3.18,0 -4.477,-0.91 -11.182,-7.848 -4.171,-4.316 -10.059,-11.278 -13.084,-15.472 -3.025,-4.193 -6.21,-7.637 -7.077,-7.652 -1.892,-0.034 -38.248,17.814 -50.059,24.574 -39.218,22.447 -63.182,44.27 -77.855,70.898 -4.808,8.725 -11.702,25.578 -16.362,40 -3.778,11.691 -6.96,23.531 -6.453,24.011 0.168,0.16 4.356,1.03 9.306,1.934 12.205,2.229 23.082,5.235 26.105,7.216 1.931,1.265 2.431,2.343 2.197,4.738 -0.251,2.576 -1.387,3.814 -6.708,7.311 -3.524,2.316 -13.507,7.457 -22.186,11.425 -11.8,5.396 -15.906,7.738 -16.281,9.29 -0.277,1.141 -0.816,7.979 -1.199,15.195 l -0.696,13.12 7.884,0.683 c 12.414,1.075 24.828,3.561 28.283,5.662 6.767,4.115 5.501,7.773 -6.964,20.125 -5.464,5.415 -9.935,10.058 -9.935,10.318 0,0.259 3.618,0.472 8.039,0.472 11.093,0 26.695,1.853 30.934,3.675 l 3.527,1.515 -2.5,0.991 c -1.678,0.665 -8.317,0.594 -20.194,-0.217 -16.476,-1.125 -28.806,-0.751 -28.806,0.874 0,2.774 19.792,31.162 21.726,31.162 0.339,0 5.698,-2.951 11.909,-6.557 6.21,-3.606 12.988,-6.832 15.062,-7.169 l 3.771,-0.612 -1.569,2.363 c -0.863,1.3 -6.823,5.486 -13.245,9.303 -9.883,5.874 -11.488,7.168 -10.447,8.422 6.07,7.313 40.131,31.872 53.624,38.663 18.851,9.489 50.263,17.331 99.368,24.808 l 21.301,3.243 42,10e-4 c 44.833,0.001 45.578,-0.054 82.5,-6.071 33.57,-5.471 65.202,-13.924 79.939,-21.363 14.195,-7.166 37.247,-23.266 50.447,-35.233 l 5.886,-5.337 -11.78,-7.004 c -6.479,-3.853 -12.495,-8.082 -13.37,-9.4 l -1.59,-2.395 3.822,0.621 c 2.102,0.341 8.897,3.567 15.099,7.168 6.203,3.602 11.539,6.549 11.858,6.549 1.88,0 21.689,-28.414 21.689,-31.11 0,-1.381 -12.284,-1.681 -28.677,-0.701 -11.102,0.663 -18.176,0.685 -20,0.062 l -2.823,-0.965 3.882,-1.647 c 4.803,-2.038 18.084,-3.62 30.481,-3.631 l 9.363,-0.008 -9.399,-8.896 c -17.983,-17.018 -17.239,-22.056 3.768,-25.518 4.898,-0.808 12.228,-1.771 16.29,-2.142 l 7.384,-0.674 -0.696,-13.135 c -0.383,-7.224 -0.923,-14.069 -1.2,-15.21 -0.375,-1.552 -4.481,-3.894 -16.281,-9.29 -8.679,-3.968 -18.662,-9.109 -22.186,-11.425 -5.321,-3.497 -6.457,-4.735 -6.708,-7.311 -0.235,-2.41 0.266,-3.473 2.251,-4.774 2.975,-1.949 17.842,-5.96 28.358,-7.65 l 7.308,-1.175 -0.681,-3.15 c -3.011,-13.922 -11.217,-37.65 -18.393,-53.183 -13.891,-30.068 -39.247,-54.483 -81.905,-78.871 -11.968,-6.842 -48.188,-24.605 -50.059,-24.55 -0.867,0.026 -4.952,4.576 -9.077,10.111 -10.107,13.563 -17.981,20.843 -22.543,20.843 -2.858,0 -3.838,-0.624 -5.89,-3.75 -2.737,-4.17 -6.485,-16.319 -9.107,-29.518 -1.929,-9.718 -1.391,-9.258 -11.987,-10.239 l -7.027,-0.651 -12.983,18.829 c -10.853,15.74 -13.383,18.829 -15.421,18.829 -2.039,0 -4.544,-3.065 -15.318,-18.75 l -12.881,-18.75 -3.171,0.141 c -1.745,0.077 -5.507,0.425 -8.361,0.772 m -28.311,4.553 c -12.891,2.818 -19,4.616 -19,5.594 0,1.514 13.887,18.604 18.946,23.314 6.065,5.648 6.597,5.466 9.828,-3.374 1.971,-5.393 6.226,-23.492 6.226,-26.483 0,-2.043 -3.164,-1.856 -16,0.949 m 120.02,-0.716 c 0.036,2.937 3.867,19.375 6.041,25.924 3.025,9.112 3.854,9.415 10.035,3.66 5.071,-4.723 18.902,-21.771 18.902,-23.3 0,-0.971 -8.612,-3.394 -21.36,-6.01 -12.135,-2.491 -13.646,-2.521 -13.618,-0.274 m -298.51,174.233 c -0.776,1.256 -4.647,24.091 -4.324,25.508 0.36,1.578 21.506,-7.729 31.885,-14.033 5.506,-3.345 6.018,-3.916 4.504,-5.024 -3.271,-2.391 -31.113,-7.993 -32.065,-6.451 m 481.39,1.003 c -11.327,2.107 -20.577,4.682 -21.357,5.944 -0.875,1.415 12.802,9.06 29.322,16.389 l 8.367,3.713 -0.664,-5.265 c -1.206,-9.568 -4.053,-22.114 -5.07,-22.342 -0.55,-0.123 -5.319,0.579 -10.598,1.561 m -246.321,45.074 c -2.157,0.54 -4.519,1.478 -5.25,2.084 -2.361,1.96 -1.482,7.22 2.242,13.417 6.123,10.187 11.196,14.241 15.686,12.534 3.464,-1.317 8.59,-7.588 11.871,-14.523 3.55,-7.504 3.619,-10.035 0.333,-12.188 -3.049,-1.998 -18.838,-2.838 -24.882,-1.324 m -241.24,30.879 c 0.611,7.635 4.04,21.798 5.682,23.467 1.149,1.168 6.27,-2.746 16.81,-12.849 9.881,-9.469 11.141,-11.373 8.71,-13.15 -1.949,-1.425 -11.125,-3.088 -23.423,-4.243 l -8.384,-0.788 0.605,7.563 m 492.66,-6.298 c -18.812,2.755 -21.029,3.569 -19.173,7.037 1.19,2.225 16.335,16.82 21.695,20.909 1.865,1.422 3.81,2.328 4.322,2.011 1.464,-0.905 5.039,-15.356 5.775,-23.346 l 0.668,-7.25 -5.393,0.136 c -2.967,0.075 -6.519,0.301 -7.894,0.503 m -102,129.97 c -17.2,5.202 -50.982,11.664 -83.442,15.959 -17.165,2.271 -22.485,2.525 -53.558,2.551 -36.433,0.03 -42.851,-0.446 -77,-5.717 -20.95,-3.234 -38.333,-6.689 -53.217,-10.579 -6.444,-1.684 -12.339,-2.822 -13.1,-2.531 -1.8,0.691 -28.683,64.846 -28.683,68.452 0,0.56 5.019,3.637 11.152,6.836 19.141,9.986 27.848,16.652 27.848,21.323 0,5.067 -10.39,9.093 -36.519,14.151 -9.339,1.809 -17.526,3.774 -18.191,4.368 -1.741,1.552 -8.719,26.572 -7.667,27.492 0.482,0.422 6.502,2.69 13.377,5.041 31.152,10.65 38.409,16.927 29.195,25.251 -4.236,3.827 -22.719,13.475 -37.047,19.338 -5.144,2.105 -9.59,4.446 -9.881,5.203 -0.744,1.939 1.472,20.936 3.773,32.347 5.977,29.641 15.807,50.108 27.746,57.77 11.124,7.138 33.935,13.159 57.961,15.297 7.286,0.649 13.5,0.927 13.809,0.618 0.309,-0.31 -0.14,-4.261 -0.997,-8.781 -1.819,-9.59 -2.048,-24.641 -0.436,-28.682 l 1.123,-2.815 1.439,3.395 c 0.791,1.867 2.319,9.517 3.394,17 2.568,17.864 4.036,22.064 9.759,27.931 13.175,13.503 30.323,14.752 43.516,3.168 5.635,-4.948 8.218,-10.24 12.084,-24.761 1.939,-7.282 4.497,-15.145 5.684,-17.472 l 2.159,-4.233 0.952,2.486 c 1.445,3.776 0.114,14.562 -3.152,25.55 -1.613,5.426 -2.715,10.219 -2.448,10.651 0.628,1.016 44.097,1.031 44.725,0.015 0.261,-0.423 -0.631,-4.585 -1.984,-9.25 -3.392,-11.694 -4.825,-20.779 -3.983,-25.258 1.31,-6.968 3.935,-1.991 9.141,17.335 3.994,14.823 6.526,20.031 12.134,24.955 9.361,8.218 20.588,10.343 30.432,5.758 15.871,-7.393 20.169,-14.378 22.895,-37.21 0.631,-5.289 1.965,-11.966 2.965,-14.838 l 1.816,-5.222 1.226,3 c 1.745,4.271 1.543,17.497 -0.424,27.863 -0.926,4.875 -1.427,9.12 -1.113,9.433 0.313,0.313 6.519,0.012 13.79,-0.669 34.354,-3.217 58.218,-11.567 66.844,-23.389 7.655,-10.49 14.322,-27.678 18.46,-47.589 2.618,-12.592 4.995,-32.267 4.163,-34.437 -0.284,-0.738 -4.724,-3.064 -9.868,-5.169 -14.328,-5.863 -32.811,-15.511 -37.047,-19.338 -9.205,-8.317 -1.556,-14.871 29.695,-25.443 6.6,-2.233 12.38,-4.395 12.845,-4.805 1.37,-1.21 -6.372,-27.841 -8.246,-28.367 -0.88,-0.247 -9.024,-1.887 -18.099,-3.644 -25.709,-4.978 -36,-9.004 -36,-14.086 0,-4.644 11.433,-13.107 30.75,-22.76 4.538,-2.267 8.25,-4.629 8.25,-5.249 0,-2.129 -23.761,-60.819 -27.217,-67.226 l -1.283,-2.378 -4.5,1.361 m -317.05,89.642 c -2.911,8.388 -5.49,15.813 -5.731,16.5 -0.67,1.917 3.195,1.561 19.196,-1.767 15.515,-3.226 26.692,-6.761 27.305,-8.636 0.497,-1.517 -13.825,-10.935 -25.454,-16.74 -5.077,-2.534 -9.408,-4.607 -9.627,-4.607 -0.218,0 -2.778,6.862 -5.689,15.25 m 341.35,-9.842 c -13.008,6.846 -24.506,14.48 -24.025,15.95 0.647,1.978 12.624,5.642 29.721,9.094 9.075,1.832 16.675,3.167 16.889,2.966 0.571,-0.533 -11.005,-33.422 -11.754,-33.397 -0.349,0.012 -5.223,2.436 -10.831,5.387 m -360.16,78.628 c -0.627,5.52 -1.141,14.95 -1.141,20.955 v 10.92 l 7.25,-3.015 c 11.174,-4.647 32.965,-15.598 35.7,-17.941 3.328,-2.852 2.118,-4.487 -6.524,-8.813 -6.945,-3.478 -30.375,-12.142 -32.832,-12.142 -0.919,0 -1.653,3.005 -2.453,10.036 m 381.36,-6.144 c -19.877,6.907 -29.5,11.601 -29.5,14.387 0,2.636 15.701,11.209 36.75,20.065 l 8.25,3.471 v -11.466 c 0,-13.732 -1.871,-30.363 -3.41,-30.314 -0.6,0.019 -6.04,1.754 -12.09,3.857"
      fill="#080808" fill-rule="evenodd" id="outline"
      sodipodi:nodetypes="ccccccccccsccccscccccccccccccscsccccscccccccccccccsscccccccsccssccccccscccccccccccccccccccccccccccccccccccscccccccscscccccccccccccccccccccscccccsccsccssccccccsccscccccscsscccssscccccccccscccccscccsscccccccccccccscccccscccscccccscccccsccsccccscccccccccccccccccsccccccccccccccccccccccccscsccccsscsccccsccccccccccsccscccccccccccccccccscscsccccccccsccccccccscsccsccsscssc"
      style="display:inline" />
   <path
      d="m 290.12,305.62 a 3.5,3.5 0 0 0 -1.7871,0.30664 3.5,3.5 0 0 0 -1.7109,4.6445 c 0.15281,0.33109 0.3089,0.65324 0.46484,0.97656 -5.9255,10.594 -13.307,15.166 -19.479,17.297 -6.8834,2.3764 -11.998,1.5801 -11.998,1.5801 a 3.5,3.5 0 0 0 -3.9844,2.9356 3.5,3.5 0 0 0 2.9355,3.9844 c 0,0 6.9103,1.0247 15.332,-1.8828 6.7734,-2.3384 14.69,-7.3163 21.133,-16.979 6.4434,9.6628 14.363,14.64 21.137,16.979 8.4217,2.9075 15.33,1.8828 15.33,1.8828 a 3.5,3.5 0 0 0 2.9375,-3.9844 3.5,3.5 0 0 0 -3.9863,-2.9356 c 0,0 -5.1147,0.79632 -11.998,-1.5801 -6.1712,-2.1305 -13.553,-6.7029 -19.479,-17.297 0.15594,-0.32332 0.31203,-0.64547 0.46485,-0.97656 a 3.5,3.5 0 0 0 -1.7109,-4.6445 3.5,3.5 0 0 0 -2.6758,-0.10547 3.5,3.5 0 0 0 -0.0176,0.01 3.5,3.5 0 0 0 -0.0176,-0.01 3.5,3.5 0 0 0 -0.89062,-0.20117 z"
      color="#000000" stroke-linecap="round" stroke-linejoin="round"
      style="display:inline;-inkscape-stroke:none;paint-order:markers stroke fill" id="mouth" />
   <g style="display:inline" id="eye-left">
      <circle
         style="fill:#000000;fill-opacity:1;stroke:none;stroke-width:8.95732;stroke-linecap:round;stroke-linejoin:round;paint-order:markers stroke fill"
         cx="181.5114" cy="279.28796" r="54.106728" id="eye-left-main" />
      <circle
         style="fill:#ffffff;fill-opacity:1;stroke:none;stroke-width:6.22471;stroke-linecap:round;stroke-linejoin:round;paint-order:markers stroke fill"
         cx="165.11578" cy="263.55045" r="18.488504" id="eye-left-retina" />
      <circle
         style="fill:#ffffff;fill-opacity:1;stroke:none;stroke-width:7;stroke-linecap:round;stroke-linejoin:round;paint-order:markers stroke fill"
         cx="213.93092" cy="299.58664" r="6.018517" id="eye-left-glare" />
   </g>
   <g style="display:inline" transform="translate(220.22062,3.1874951)" id="eye-right">
      <circle
         style="fill:#000000;fill-opacity:1;stroke:none;stroke-width:8.95732;stroke-linecap:round;stroke-linejoin:round;paint-order:markers stroke fill"
         cx="181.5114" cy="279.28796" r="54.106728" id="eye-right-main" />
      <circle
         style="fill:#ffffff;fill-opacity:1;stroke:none;stroke-width:5.9146;stroke-linecap:round;stroke-linejoin:round;paint-order:markers stroke fill"
         cx="167.11578" cy="263.55045" r="17.56741" id="eye-right-retina" />
      <circle
         style="fill:#ffffff;fill-opacity:1;stroke:none;stroke-width:7;stroke-linecap:round;stroke-linejoin:round;paint-order:markers stroke fill"
         cx="213.93092" cy="299.58664" r="6.018517" id="eye-right-glare" />
   </g>
</svg>